<svg width="240" height="240" viewBox="0 0 240 240" fill="none" xmlns="http://www.w3.org/2000/svg">
<g clip-path="url(#clip0_176_48)">
<mask id="mask0_176_48" style="mask-type:alpha" maskUnits="userSpaceOnUse" x="12" y="-10" width="90" height="121">
<path d="M82 -6.99951L102 -9.99951V97.1751C102 107.44 90.9945 113.947 82 109V-6.99951Z" fill="#D9D9D9"/>
<path d="M45.5 3.00049L65 -2.99951V100L45.5 88.5005V3.00049Z" fill="#D9D9D9"/>
<path d="M12 35.0005L28 24.0005V74.0005L12 65.0005V35.0005Z" fill="#D9D9D9"/>
</mask>
<g mask="url(#mask0_176_48)">
<path d="M240 119C240 185.275 186.274 239 120 239C53.7258 239 0 185.275 0 119C0 52.7263 53.7258 -0.999512 120 -0.999512C186.274 -0.999512 240 52.7263 240 119Z" fill="black"/>
</g>
<mask id="mask1_176_48" style="mask-type:alpha" maskUnits="userSpaceOnUse" x="137" y="129" width="91" height="122">
<path d="M157.635 247.216L137.635 250.216V143.042C137.635 132.777 148.64 126.269 157.635 131.216V247.216Z" fill="#D9D9D9"/>
<path d="M194.135 237.216L174.635 243.216V140.216L194.135 151.716V237.216Z" fill="#D9D9D9"/>
<path d="M227.635 205.216L211.635 216.216V166.216L227.635 175.216V205.216Z" fill="#D9D9D9"/>
</mask>
<g mask="url(#mask1_176_48)">
<path d="M-0.365234 121.216C-0.365234 54.9421 53.3606 1.21631 119.635 1.21631C185.909 1.21631 239.635 54.9421 239.635 121.216C239.635 187.49 185.909 241.216 119.635 241.216C53.3606 241.216 -0.365234 187.49 -0.365234 121.216Z" fill="black"/>
</g>
<mask id="mask2_176_48" style="mask-type:alpha" maskUnits="userSpaceOnUse" x="108" y="-16" width="115" height="112">
<path d="M209.985 24.1107L222.588 39.927L129.79 93.5452C120.902 98.6807 109.762 92.407 109.545 82.1442L209.985 24.1107Z" fill="#D9D9D9"/>
<path d="M183.066 -2.48997L198.017 11.3926L108.833 62.9222L109.035 40.2847L183.066 -2.48997Z" fill="#D9D9D9"/>
<path d="M138.599 -15.4871L156.128 -7.13649L112.835 17.8779L112.623 -0.478419L138.599 -15.4871Z" fill="#D9D9D9"/>
</mask>
<g mask="url(#mask2_176_48)">
<path d="M179.932 223.953C122.548 257.109 49.1507 237.469 15.9945 180.085C-17.1616 122.7 2.47895 49.3031 59.863 16.1469C117.247 -17.0093 190.645 2.6313 223.801 60.0154C256.957 117.399 237.316 190.797 179.932 223.953Z" fill="black"/>
</g>
<mask id="mask3_176_48" style="mask-type:alpha" maskUnits="userSpaceOnUse" x="17" y="144" width="114" height="112">
<path d="M29.6498 216.105L17.0465 200.289L109.845 146.671C118.733 141.535 129.873 147.809 130.089 158.072L29.6498 216.105Z" fill="#D9D9D9"/>
<path d="M56.5687 242.706L41.6179 228.824L130.801 177.294L130.6 199.932L56.5687 242.706Z" fill="#D9D9D9"/>
<path d="M101.036 255.703L83.5066 247.352L126.8 222.338L127.011 240.694L101.036 255.703Z" fill="#D9D9D9"/>
</mask>
<g mask="url(#mask3_176_48)">
<path d="M59.7026 16.2633C117.087 -16.8929 190.484 2.74768 223.64 60.1318C256.796 117.516 237.156 190.913 179.772 224.069C122.388 257.226 48.9903 237.585 15.8341 180.201C-17.3221 122.817 2.31848 49.4195 59.7026 16.2633Z" fill="black"/>
</g>
<mask id="mask4_176_48" style="mask-type:alpha" maskUnits="userSpaceOnUse" x="141" y="54" width="117" height="117">
<path d="M247.797 151.426L240.319 170.216L147.721 116.253C138.852 111.084 138.771 98.2989 147.574 93.0186L247.797 151.426Z" fill="#D9D9D9"/>
<path d="M257.535 114.854L252.901 134.723L163.91 82.862L183.664 71.8045L257.535 114.854Z" fill="#D9D9D9"/>
<path d="M246.755 69.7988L248.203 89.1613L205.004 63.9859L220.836 54.6936L246.755 69.7988Z" fill="#D9D9D9"/>
</mask>
<g mask="url(#mask4_176_48)">
<path d="M59.3801 224.494C2.11988 191.124 -17.2474 117.654 16.1222 60.3942C49.4917 3.13389 122.962 -16.2334 180.222 17.1362C237.482 50.5058 256.85 123.976 223.48 181.236C190.11 238.496 116.64 257.864 59.3801 224.494Z" fill="black"/>
</g>
<mask id="mask5_176_48" style="mask-type:alpha" maskUnits="userSpaceOnUse" x="-18" y="70" width="117" height="116">
<path d="M-8.16242 88.7903L-0.68424 70L91.9136 123.963C100.783 129.132 100.863 141.917 92.0605 147.197L-8.16242 88.7903Z" fill="#D9D9D9"/>
<path d="M-17.9005 125.361L-13.2661 105.492L75.725 157.353L55.9707 168.411L-17.9005 125.361Z" fill="#D9D9D9"/>
<path d="M-7.12061 170.417L-8.56839 151.055L34.6311 176.23L18.7991 185.522L-7.12061 170.417Z" fill="#D9D9D9"/>
</mask>
<g mask="url(#mask5_176_48)">
<path d="M180.255 15.7219C237.515 49.0914 256.882 122.561 223.513 179.822C190.143 237.082 116.673 256.449 59.4128 223.08C2.1525 189.71 -17.2147 116.24 16.1548 58.9798C49.5244 1.71955 122.994 -17.6477 180.255 15.7219Z" fill="black"/>
</g>
</g>
<defs>
<clipPath id="clip0_176_48">
<rect width="240" height="240" fill="white"/>
</clipPath>
</defs>
</svg>
